<?xml version="1.0"?>
<svg xmlns="http://www.w3.org/2000/svg" viewBox="0 0 50 50">
    <path style="line-height:normal;text-indent:0;text-align:start;text-decoration-line:none;text-decoration-style:solid;text-decoration-color:crimson; fill: crimson; text-transform:none;block-progression:tb;isolation:auto;mix-blend-mode:normal" d="M 15.984375 1.9863281 A 1.0001 1.0001 0 0 0 15.203125 2.3828125 L 10.292969 7.2929688 A 1.0001 1.0001 0 1 0 11.707031 8.7070312 L 15 5.4140625 L 15 14 A 1.0001 1.0001 0 1 0 17 14 L 17 5.4140625 L 20.292969 8.7070312 A 1.0001 1.0001 0 1 0 21.707031 7.2929688 L 16.791016 2.3769531 A 1.0001 1.0001 0 0 0 15.984375 1.9863281 z M 33.984375 1.9863281 A 1.0001 1.0001 0 0 0 33 3 L 33 11.585938 L 29.707031 8.2929688 A 1.0001 1.0001 0 0 0 28.990234 7.9902344 A 1.0001 1.0001 0 0 0 28.292969 9.7070312 L 33.205078 14.619141 A 1.0001 1.0001 0 0 0 34.792969 14.623047 A 1.0001 1.0001 0 0 0 34.796875 14.617188 L 39.707031 9.7070312 A 1.0001 1.0001 0 1 0 38.292969 8.2929688 L 35 11.585938 L 35 3 A 1.0001 1.0001 0 0 0 33.984375 1.9863281 z M 6 17 A 1.0001 1.0001 0 0 0 5 18 L 5 21 A 1.0001 1.0001 0 0 0 5.2929688 21.707031 L 19 35.414062 L 19 41 A 1.0001 1.0001 0 0 0 19.486328 41.857422 L 29.486328 47.857422 A 1.0001 1.0001 0 0 0 31 47 L 31 35.414062 L 44.607422 21.806641 A 1.0001 1.0001 0 0 0 44.923828 21.394531 A 1.0001 1.0001 0 0 0 44.931641 21.378906 A 1.0001 1.0001 0 0 0 44.9375 21.363281 A 1.0001 1.0001 0 0 0 44.939453 21.357422 A 1.0001 1.0001 0 0 0 45 20.853516 L 45 18 A 1.0001 1.0001 0 0 0 44 17 L 6 17 z M 7 19 L 43 19 L 43 20.585938 L 29.585938 34 L 20.414062 34 L 7 20.585938 L 7 19 z M 21 36 L 29 36 L 29 45.234375 L 21 40.433594 L 21 36 z" font-weight="400" font-family="sans-serif" white-space="normal" overflow="visible"/>
</svg>
