<?xml version="1.0" encoding="utf-8"?>
<!-- Generator: Adobe Illustrator 20.1.0, SVG Export Plug-In . SVG Version: 6.00 Build 0)  -->
<svg version="1.1" id="Layer_1" xmlns="http://www.w3.org/2000/svg" xmlns:xlink="http://www.w3.org/1999/xlink" x="0px" y="0px"
	 viewBox="0 0 100 100" style="enable-background:new 0 0 100 100;" xml:space="preserve">
<g>
	<path d="M63,78.2c-1.6-0.3-3.2-0.7-4.7-1.2c0.2,0.5,0.4,1,0.7,1.4c1.2,1.9,1,2.6-0.2,3.7l-0.1,0.1c-1,1-2,1.9-2.7,1.9
		c-0.4,0-0.9-0.3-1.5-0.8c-0.9-0.7-2-1-2.9-1.2c-0.2,0-0.3-0.1-0.5-0.1l-0.2-0.1l-0.4,0c-3.2,0-7,2-9.1,3.9c-1.2,1.1-2,2.2-2.2,3.3
		c-0.5,2.2-1.1,2.6-2.4,2.6h-1.2c-1.5,0.1-2.1-0.2-2.7-2.6c-0.9-3.6-7.2-7.2-11.3-7.2h-0.3L21,81.9c-0.1,0-0.2,0.1-0.4,0.1l-0.2,0
		c-0.8,0.2-1.9,0.5-2.9,1.2c-0.7,0.6-1.2,0.8-1.5,0.8c-0.7,0-1.7-0.9-2.8-1.9L13.3,82c-1.2-1.1-1.3-1.8-0.1-3.7
		c1.4-2.3,1.3-5.6-0.1-8.8c-1.5-3.3-4-5.6-6.8-6.2c-1.8-0.4-1.9-1-2-1.9v-2.7c0.1-1,0.1-1.7,2-2.1c2.8-0.6,5.3-3,6.7-6.3
		c1.4-3.2,1.4-6.4,0-8.6c-1.2-2-1-2.6,0.1-3.8l0.1-0.1c1-1,2-1.9,2.7-1.9c0.3,0,0.7,0.1,1.4,0.7c0.9,0.8,2,1.1,2.9,1.3
		c0.2,0,0.3,0.1,0.4,0.1l0.3,0.1h0.3c4.1,0,10.5-3.6,11.3-7.2c0.6-2.2,1.1-2.6,2.4-2.6h1.1c1.5-0.1,2.1,0.2,2.7,2.6
		c0,0.1,0.1,0.3,0.1,0.4c0.7-1.4,1.5-2.8,2.4-4.1c-0.9-1.4-2.3-2.6-4.9-2.6c-0.1,0-0.3,0-0.3,0h-0.6c-4.5-0.2-5.9,3-6.4,5.4
		c-0.3,1.4-4.5,4.2-7.5,4.4c-0.2,0-0.3-0.1-0.5-0.1c-0.5-0.1-1.1-0.3-1.4-0.5c-1.3-1-2.5-1.6-3.8-1.6c-2.2,0-3.8,1.5-5.3,2.9
		l-0.2,0.2c-3.2,3.2-2.1,6.1-0.7,8.4c0.7,1.1,0.6,3.2-0.2,5.2c-0.9,2.2-2.5,3.8-4.1,4.1c-4.1,0.9-4.8,3.4-5,5.6l0,2.9
		C0.8,62.6,1,66,5.7,66.9c1.6,0.3,3.1,1.9,4.1,4.1c0.9,2,1,4.2,0.3,5.3c-1.3,2.1-2.7,5.2,0.7,8.4c1.5,1.5,3.1,3,5.3,3
		c1.3,0,2.6-0.5,3.8-1.6c0.3-0.2,1-0.4,1.5-0.6c0.2,0,0.3-0.1,0.4-0.1c3.2,0.2,7.2,3.1,7.5,4.4c0.6,2.3,1.8,5.4,6,5.4
		c0.1,0,0.3,0,0.3,0h0.6c0.2,0,0.3,0,0.5,0h0c2.1,0,3.4-0.8,4.3-1.9c0.9-1.1,1.4-2.4,1.6-3.5c0-0.1,0.2-0.6,1.1-1.4
		c1.7-1.6,4.5-2.8,6.4-2.9c0.1,0,0.3,0.1,0.4,0.1c0.5,0.1,1.2,0.3,1.4,0.5c1.3,1.1,2.6,1.6,3.9,1.6c2.2,0,3.8-1.5,5.3-3l0.1-0.1
		C63.8,82.4,63.7,80,63,78.2z"/>
	<path d="M49,71.9c-2.3,2.4-5.2,4.2-8.5,5.1c-1.4,0.4-2.9,0.6-4.4,0.6c-2.9,0-5.6-0.7-8.2-2c-5.5-2.9-9.1-8.2-9.6-14.3v-2.6
		c0.8-9.3,8.5-16.3,17.8-16.4h0.1c0.1-0.5,0.1-1,0.2-1.6c-0.1,0-0.2,0-0.3,0c-10.1,0.1-18.4,7.8-19.3,17.9v2.8
		c0.6,6.6,4.5,12.5,10.5,15.6c2.8,1.4,5.8,2.2,8.9,2.2c1.6,0,3.3-0.2,4.8-0.7c3.7-1,6.9-3,9.4-5.7C49.8,72.6,49.4,72.3,49,71.9z"/>
	<path d="M94.8,23c0,1.2-0.4,2.3-1,3.2c-2.4-3-5.3-5.6-8.7-7.6c1-0.9,2.4-1.5,3.9-1.5C92.2,17.3,94.8,19.8,94.8,23z"/>
	<path d="M43.1,23c0,1.2,0.4,2.3,1,3.2c2.4-3,5.3-5.6,8.7-7.6c-1-0.9-2.4-1.5-3.9-1.5C45.7,17.3,43.1,19.8,43.1,23z"/>
	<path d="M98.8,40.4C96.3,27.6,87.2,18.5,74.4,16c-0.5-0.1-0.8-0.2-0.9-0.2c0,0,0-0.1,0-0.2l1.4,0c0.6,0,1.1,0,1.5,0
		c3.1-0.1,3.6-2.3,3.8-3.3c0.2-1.4,0.2-2.9,0-4.4C80,6,78.7,4.8,76.9,4.8c-5.9,0-10.8,0-15.4,0c-2.1,0-3.6,1.5-3.7,3.7
		c0,0.8,0,1.5,0,2.3l0,0.4c0,2.9,1.6,4.5,4.5,4.5c0.5,0,1,0,1.5,0l1.6,0c0,0,0,0.1,0,0.1c-0.2,0-0.4,0.1-0.8,0.1
		c-0.2,0-0.5,0.1-0.8,0.1c-0.1,0-0.3,0.1-0.4,0.1c-7.7,1.4-14.6,6-19.2,12.7c-4.6,6.7-6.2,14.7-4.7,22.4c2.9,14.4,15,24.5,29.5,24.5
		c2.1,0,4.3-0.2,6.4-0.7C91.2,71.8,101.8,55.9,98.8,40.4z M69,14.3l-0.2-2.3h-2.3l-2.7,0c-0.5,0-1,0-1.4,0c-0.8,0-0.8,0-0.9-0.8
		l0-0.4c0-0.7,0-1.4,0-2.1c0-0.1,0-0.1,0-0.1c4.5,0,9.2,0,15,0c0.1,1.2,0.1,2.3,0,3.4c0,0,0,0,0,0c-0.1,0-0.1,0-0.2,0
		c-0.4,0-0.9,0-1.4,0l-4.8,0l-0.2,2.3c-0.3,3.2,0.2,4.7,3.8,5.4C85,21.9,93,29.9,95.1,41.1c2.6,13.6-6.7,27.4-20.3,30.2
		C73,71.8,71.1,72,69.2,72c-12.7,0-23.4-8.8-25.9-21.5c-1.3-6.7,0.1-13.7,4.1-19.6c4-5.8,10.1-9.9,16.8-11.1c0.2,0,0.4-0.1,0.6-0.1
		c0.2,0,0.3-0.1,0.5-0.1C68.8,19,69.3,17.4,69,14.3z"/>
	<path d="M82.8,38.7c-0.5-1-1.7-1.4-2.7-0.9l-8.4,4.3c-0.7-0.5-1.6-0.8-2.5-0.8c-2.4,0-4.4,1.9-4.4,4.4c0,2.4,1.9,4.4,4.4,4.4
		c2.4,0,4.3-1.9,4.4-4.3l8.4-4.3C82.9,40.9,83.3,39.7,82.8,38.7z"/>
</g>
</svg>
